# xmcd
#
# Track frame offsets:
#	150
#	18657
#	32225
#	48771
#	64753
#	84577
#	102077
#	118684
#	138237
#	153833
#	171061
#	187679
#	206462
#	225373
#	238894
#	255252
#	272948
#	287831
#	302026
#	318897
#	333225
#	346127
#
# Disc length: 4831 seconds
#
# Revision: 0
# Processed by: cddbd v1.5.2PL0 Copyright (c) Steve Scherf et al.
# Submitted via: audiograbber 1.83.01
#
DISCID=2312dd16
DTITLE=Kenny Rogers - 21 Number Ones
DYEAR=2006
DGENRE=Country
TTITLE0=The Gambler
TTITLE1=Through the Years
TTITLE2=Lady
TTITLE3=Lucille
TTITLE4=Coward of the County
TTITLE5=I Don't Need You
TTITLE6=We've Got Tonight
TTITLE7=Crazy
TTITLE8=Islands in the Stream
TTITLE9=She Believes in Me
TTITLE10=Every Time Two Fools Collide
TTITLE11=You Decorated My Life
TTITLE12=Make No Mistake, She's Mine
TTITLE13=Share Your Love With Me
TTITLE14=All I Ever Need Is You
TTITLE15=Buy Me a Rose
TTITLE16=Daytime Friends
TTITLE17=Love or Something Like It
TTITLE18=Love Will Turn You Around
TTITLE19=Morning Desire
TTITLE20=What Are We Doin' in Love?
TTITLE21=Don't Fall in Love With a Dreamer
EXTD=
EXTT0=
EXTT1=
EXTT2=
EXTT3=
EXTT4=
EXTT5=
EXTT6=
EXTT7=
EXTT8=
EXTT9=
EXTT10=
EXTT11=
EXTT12=
EXTT13=
EXTT14=
EXTT15=
EXTT16=
EXTT17=
EXTT18=
EXTT19=
EXTT20=
EXTT21=
PLAYORDER=
